<?xml version="1.0" encoding="UTF-8" standalone="no"?>
<!-- Generator: Adobe Illustrator 16.0.0, SVG Export Plug-In . SVG Version: 6.00 Build 0)  -->

<svg
   xmlns:dc="http://purl.org/dc/elements/1.1/"
   xmlns:cc="http://creativecommons.org/ns#"
   xmlns:rdf="http://www.w3.org/1999/02/22-rdf-syntax-ns#"
   xmlns:svg="http://www.w3.org/2000/svg"
   xmlns="http://www.w3.org/2000/svg"
   xmlns:sodipodi="http://sodipodi.sourceforge.net/DTD/sodipodi-0.dtd"
   xmlns:inkscape="http://www.inkscape.org/namespaces/inkscape"
   version="1.1"
   id="Capa_1"
   x="0px"
   y="0px"
   width="350.451px"
   height="350.451px"
   viewBox="0 0 350.451 350.451"
   style="enable-background:new 0 0 350.451 350.451;"
   xml:space="preserve"
   sodipodi:docname="bus.svg"
   inkscape:version="0.92.4 (5da689c313, 2019-01-14)"><metadata
   id="metadata47"><rdf:RDF><cc:Work
       rdf:about=""><dc:format>image/svg+xml</dc:format><dc:type
         rdf:resource="http://purl.org/dc/dcmitype/StillImage" /></cc:Work></rdf:RDF></metadata><defs
   id="defs45" /><sodipodi:namedview
   pagecolor="#ffffff"
   bordercolor="#666666"
   borderopacity="1"
   objecttolerance="10"
   gridtolerance="10"
   guidetolerance="10"
   inkscape:pageopacity="0"
   inkscape:pageshadow="2"
   inkscape:window-width="793"
   inkscape:window-height="480"
   id="namedview43"
   showgrid="false"
   inkscape:zoom="0.67341799"
   inkscape:cx="175.22549"
   inkscape:cy="175.22549"
   inkscape:window-x="0"
   inkscape:window-y="0"
   inkscape:window-maximized="0"
   inkscape:current-layer="Capa_1" />
<g
   id="g10"
   transform="matrix(-1,0,0,1,350.45,0)">
	<g
   id="g8">
		<path
   d="m 77.695,208.593 c -17.985,0 -32.562,14.571 -32.562,32.559 0,17.988 14.576,32.559 32.562,32.559 17.992,0 32.564,-14.57 32.564,-32.559 0,-17.989 -14.572,-32.559 -32.564,-32.559 z m 0,46.713 c -7.818,0 -14.153,-6.334 -14.153,-14.154 0,-7.822 6.335,-14.154 14.153,-14.154 7.819,0 14.159,6.332 14.159,14.154 0,7.82 -6.34,14.154 -14.159,14.154 z"
   id="path2"
   inkscape:connector-curvature="0" />
		<path
   d="m 268.854,208.593 c -17.986,0 -32.561,14.571 -32.561,32.559 0,17.988 14.574,32.559 32.561,32.559 17.992,0 32.564,-14.57 32.564,-32.559 0,-17.989 -14.572,-32.559 -32.564,-32.559 z m 0,46.713 c -7.818,0 -14.154,-6.334 -14.154,-14.154 0,-7.822 6.336,-14.154 14.154,-14.154 7.82,0 14.16,6.332 14.16,14.154 0,7.82 -6.34,14.154 -14.16,14.154 z"
   id="path4"
   inkscape:connector-curvature="0" />
		<path
   d="M 330.998,76.741 H 38.915 c -10.701,0 -21.207,8.579 -23.348,19.064 L 3.892,138.423 C 1.751,148.908 0,166.242 0,176.944 v 44.751 c 0,10.7 8.756,19.456 19.457,19.456 h 19.839 c 0,-21.17 17.226,-38.395 38.398,-38.395 21.174,0 38.401,17.223 38.401,38.395 h 114.358 c 0,-21.17 17.227,-38.395 38.398,-38.395 21.176,0 38.402,17.223 38.402,38.395 h 23.74 c 10.703,0 19.457,-8.754 19.457,-19.456 V 96.197 C 350.455,85.496 341.699,76.741 330.998,76.741 Z M 80.856,158.836 H 35.512 l 7.186,-17.019 c 1.254,-2.97 -0.137,-6.394 -3.106,-7.648 -2.972,-1.254 -6.395,0.138 -7.647,3.107 l -8.91,21.103 c -6.015,-1.581 -9.676,-7.214 -8.437,-13.89 l 10.46,-41.74 c 1.465,-7.891 9.23,-14.348 17.256,-14.348 h 38.543 l -0.001,70.435 z m 86.583,0 H 92.53 V 88.401 h 74.909 v 70.435 z m 86.582,0 H 179.113 V 88.401 h 74.908 v 70.435 z m 84.502,-14.592 c 0,8.026 -6.566,14.593 -14.594,14.593 H 265.695 V 88.402 h 58.234 c 8.027,0 14.594,6.567 14.594,14.593 z"
   id="path6"
   inkscape:connector-curvature="0" />
	</g>
</g>
<g
   id="g12">
</g>
<g
   id="g14">
</g>
<g
   id="g16">
</g>
<g
   id="g18">
</g>
<g
   id="g20">
</g>
<g
   id="g22">
</g>
<g
   id="g24">
</g>
<g
   id="g26">
</g>
<g
   id="g28">
</g>
<g
   id="g30">
</g>
<g
   id="g32">
</g>
<g
   id="g34">
</g>
<g
   id="g36">
</g>
<g
   id="g38">
</g>
<g
   id="g40">
</g>
</svg>