<?xml version="1.0" encoding="UTF-8" standalone="no"?>
<!-- Generator: Adobe Illustrator 16.0.0, SVG Export Plug-In . SVG Version: 6.00 Build 0)  -->

<svg
   xmlns:dc="http://purl.org/dc/elements/1.1/"
   xmlns:cc="http://creativecommons.org/ns#"
   xmlns:rdf="http://www.w3.org/1999/02/22-rdf-syntax-ns#"
   xmlns:svg="http://www.w3.org/2000/svg"
   xmlns="http://www.w3.org/2000/svg"
   xmlns:sodipodi="http://sodipodi.sourceforge.net/DTD/sodipodi-0.dtd"
   xmlns:inkscape="http://www.inkscape.org/namespaces/inkscape"
   version="1.1"
   id="Capa_1"
   x="0px"
   y="0px"
   width="350.451px"
   height="350.451px"
   viewBox="0 0 350.451 350.451"
   style="enable-background:new 0 0 350.451 350.451;"
   xml:space="preserve"
   sodipodi:docname="car.svg"
   inkscape:version="0.92.4 (5da689c313, 2019-01-14)"><metadata
   id="metadata47"><rdf:RDF><cc:Work
       rdf:about=""><dc:format>image/svg+xml</dc:format><dc:type
         rdf:resource="http://purl.org/dc/dcmitype/StillImage" /><dc:title></dc:title></cc:Work></rdf:RDF></metadata><defs
   id="defs45">
	
</defs><sodipodi:namedview
   pagecolor="#ffffff"
   bordercolor="#666666"
   borderopacity="1"
   objecttolerance="10"
   gridtolerance="10"
   guidetolerance="10"
   inkscape:pageopacity="0"
   inkscape:pageshadow="2"
   inkscape:window-width="1800"
   inkscape:window-height="1096"
   id="namedview43"
   showgrid="false"
   inkscape:zoom="0.67341799"
   inkscape:cx="175.22549"
   inkscape:cy="175.22549"
   inkscape:window-x="-9"
   inkscape:window-y="14"
   inkscape:window-maximized="1"
   inkscape:current-layer="g8" />
<g
   id="g8"
   transform="matrix(-1,0,0,1,350.45,0)">
		
		
		
	<path
   inkscape:connector-curvature="0"
   id="path4"
   style="clip-rule:evenodd;fill-rule:evenodd;stroke-width:3.07305956"
   d="m 223.8496,103.24161 c 12.4391,0.068 23.01788,3.57285 31.9307,10.13716 l 34.18126,32.20504 c 11.384,0.91833 22.79186,1.83852 34.17586,2.75685 6.9692,-0.23808 12.32781,2.68534 14.3547,11.9706 v 28.26575 c 9.66251,3.02707 3.36075,30.30441 -0.97072,36.2905 -3.83168,5.27186 -7.27117,4.66334 -12.40785,4.66334 h -30.46108 c 5.85858,-53.94293 -39.0407,-65.47749 -57.53275,-36.09118 -2.62504,4.16565 -4.24065,9.02037 -5.08677,14.39528 -0.19687,0.29897 -0.23324,0.67208 -0.18437,1.22895 -0.90366,6.82919 -0.5829,14.48875 0.77551,22.84514 H 94.320963 C 101.40126,191.94502 80.328295,175.65462 60.947736,178.00145 36.014034,180.9945 29.459131,205.48387 33.735065,232.38731 H 12.162327 c -6.1640122,0.34014 -9.0232315,-5.68049 -9.7451435,-15.85006 v -18.4342 c 0.9440316,-6.42827 3.5815758,-10.41058 8.8015405,-10.64867 -0.444254,-6.73436 0.556188,-12.41279 2.971803,-17.07243 1.138405,-2.17676 2.551849,-4.1186 4.273331,-5.81919 6.052951,-6.02012 12.883573,-6.6637 20.352572,-8.33029 7.219118,-1.59855 14.467521,-2.95798 21.686639,-4.01234 8.746193,-1.25845 17.490957,-2.11194 26.209419,-2.41805 4.053814,-0.13605 3.08134,0.13741 6.2744,-2.88969 15.715462,-14.89723 32.849162,-27.10775 50.813652,-37.68546 6.27506,-3.77533 14.26965,-5.6452 23.68227,-5.98532 z m -16.42628,7.38698 c -3.93148,0.0204 -8.20872,0.0928 -13.19963,0.0928 l -5.58026,45.98918 h 49.66936 l 4.91867,-41.11989 c -15.34757,-4.5661 -24.01374,-5.02128 -35.80814,-4.96227 z m -24.08362,0.6045 h -18.93715 c -11.77271,1.7006 -13.68594,2.1757 -24.40355,9.11415 -8.80177,5.714 -16.8543,12.04288 -25.43394,18.87928 -1.74926,1.4625 -3.55448,2.92768 -5.30372,4.42419 v 13.06004 h 69.05123 z m 64.83213,12.24297 -4.6638,33.60672 h 15.04886 l 2.91761,-4.04555 3.08025,-4.28473 z M 77.677703,192.93479 c 0.01936,0.0204 0.04588,0.0238 0.06492,0.0466 0.11079,0.12173 0.111902,0.33604 0.168265,0.50487 -0.05476,-0.006 -0.106983,-0.0137 -0.162708,-0.0137 -0.0327,-0.17142 -0.07475,-0.33944 -0.108569,-0.50486 0.0079,-0.0104 0.02968,-0.0238 0.0381,-0.0339 z m 167.468097,4.00573 c -0.003,0.0204 -0.007,0.0391 -0.0111,0.0599 -0.0289,0.0204 -0.0527,0.0453 -0.0814,0.0665 0.0315,-0.0411 0.0604,-0.0851 0.0922,-0.12614 z m -3.16705,5.10842 c -0.025,0.17857 -0.0582,0.35247 -0.0814,0.53144 -0.0797,0.0137 -0.14523,0.0605 -0.2224,0.0796 0.0974,-0.20747 0.2024,-0.40685 0.30369,-0.61116 z m -198.135207,7.09469 c 0.0017,0.006 0.0079,0.017 0.01111,0.0272 0,0 -0.0048,0.006 -0.0048,0.006 -0.09,0.0891 -0.46227,-0.0203 -0.347068,-0.0339 0.112219,-0.0137 0.227405,-8.8e-4 0.341655,0 z m 220.055027,15.04629 c 0.14269,0.0487 0.28548,0.0976 0.42843,0.14626 -0.2288,0.13537 -0.46764,0.24115 -0.68331,0.41185 0.0992,-0.17856 0.16717,-0.37281 0.2549,-0.55801 z" /><path
   inkscape:connector-curvature="0"
   id="path4-1-0"
   d="m 262.8953,181.91268 c -15.32698,0 -27.74726,14.81803 -27.74726,33.11099 0,18.29296 12.41943,33.11098 27.74726,33.11098 15.3321,0 27.74981,-14.817 27.74981,-33.11098 0,-18.29398 -12.41771,-33.11099 -27.74981,-33.11099 z m 0,47.50496 c -6.66221,0 -12.06151,-6.44141 -12.06151,-14.39397 0,-7.95462 5.3993,-14.39397 12.06151,-14.39397 6.66392,0 12.06662,6.43935 12.06662,14.39397 0,7.95256 -5.4027,14.39397 -12.06662,14.39397 z"
   style="stroke-width:0.93091869" /><path
   inkscape:connector-curvature="0"
   id="path4-1-0-2-7"
   d="m 64.09247,183.9573 c -15.327016,0 -27.747273,14.81803 -27.747273,33.11102 0,18.29296 12.419433,33.11099 27.747273,33.11099 15.332094,0 27.749812,-14.81701 27.749812,-33.11099 0,-18.29398 -12.417718,-33.11102 -27.749812,-33.11102 z m 0,47.50497 c -6.662217,0 -12.061524,-6.4414 -12.061524,-14.39395 0,-7.95462 5.399307,-14.39397 12.061524,-14.39397 6.663882,0 12.066619,6.43935 12.066619,14.39397 0,7.95255 -5.402737,14.39395 -12.066619,14.39395 z"
   style="stroke-width:0.93091869" /></g>
<g
   id="g12">
</g>
<g
   id="g14">
</g>
<g
   id="g16">
</g>
<g
   id="g18">
</g>
<g
   id="g20">
</g>
<g
   id="g22">
</g>
<g
   id="g24">
</g>
<g
   id="g26">
</g>
<g
   id="g28">
</g>
<g
   id="g30">
</g>
<g
   id="g32">
</g>
<g
   id="g34">
</g>
<g
   id="g36">
</g>
<g
   id="g38">
</g>
<g
   id="g40">
</g>
</svg>