<?xml version="1.0" encoding="UTF-8" standalone="no"?>
<svg
   xmlns:dc="http://purl.org/dc/elements/1.1/"
   xmlns:cc="http://creativecommons.org/ns#"
   xmlns:rdf="http://www.w3.org/1999/02/22-rdf-syntax-ns#"
   xmlns:svg="http://www.w3.org/2000/svg"
   xmlns="http://www.w3.org/2000/svg"
   xmlns:sodipodi="http://sodipodi.sourceforge.net/DTD/sodipodi-0.dtd"
   xmlns:inkscape="http://www.inkscape.org/namespaces/inkscape"
   width="72px"
   height="72px"
   viewBox="0 0 72 72"
   id="emoji"
   version="1.1"
   sodipodi:docname="chequered-flag.svg"
   inkscape:version="0.92.4 (5da689c313, 2019-01-14)">
  <metadata
     id="metadata64">
    <rdf:RDF>
      <cc:Work
         rdf:about="">
        <dc:format>image/svg+xml</dc:format>
        <dc:type
           rdf:resource="http://purl.org/dc/dcmitype/StillImage" />
      </cc:Work>
    </rdf:RDF>
  </metadata>
  <defs
     id="defs62" />
  <sodipodi:namedview
     pagecolor="#ffffff"
     bordercolor="#666666"
     borderopacity="1"
     objecttolerance="10"
     gridtolerance="10"
     guidetolerance="10"
     inkscape:pageopacity="0"
     inkscape:pageshadow="2"
     inkscape:window-width="793"
     inkscape:window-height="480"
     id="namedview60"
     showgrid="false"
     inkscape:zoom="3.2777778"
     inkscape:cx="36"
     inkscape:cy="36"
     inkscape:window-x="0"
     inkscape:window-y="0"
     inkscape:window-maximized="0"
     inkscape:current-layer="emoji" />
  <g
     id="color">
    <rect
       x="22.3576"
       y="17.2677"
       width="6.0019"
       height="6.0019"
       fill="#FFFFFF"
       stroke="none"
       id="rect2" />
    <polygon
       fill="#FFFFFF"
       stroke="none"
       points="28.3595,33.8934 22.3576,35.2734 22.3576,29.2715 28.3595,29.2715"
       id="polygon4" />
    <rect
       x="28.3595"
       y="23.2696"
       width="6.0019"
       height="6.0019"
       fill="#FFFFFF"
       stroke="none"
       id="rect6" />
    <rect
       x="34.3615"
       y="17.2677"
       width="6.0019"
       height="6.0019"
       fill="#FFFFFF"
       stroke="none"
       id="rect8" />
    <rect
       x="28.3595"
       y="14.9868"
       width="6.0019"
       height="2.2809"
       fill="#FFFFFF"
       stroke="none"
       id="rect10" />
    <polygon
       fill="#FFFFFF"
       stroke="none"
       points="40.3634,35.2734 34.3615,33.822 34.3615,29.2715 40.3634,29.2715"
       id="polygon12" />
    <rect
       x="40.3634"
       y="23.2696"
       width="6.0019"
       height="6.0019"
       fill="#FFFFFF"
       stroke="none"
       id="rect14" />
    <rect
       x="46.3653"
       y="20.2686"
       width="6.0019"
       height="3.001"
       fill="#FFFFFF"
       stroke="none"
       id="rect16" />
    <rect
       x="46.3653"
       y="29.2715"
       width="6.0019"
       height="6.0019"
       fill="#FFFFFF"
       stroke="none"
       id="rect18" />
    <rect
       x="52.3672"
       y="23.2696"
       width="1.7444"
       height="6.0019"
       fill="#FFFFFF"
       stroke="none"
       id="rect20" />
    <rect
       x="40.3634"
       y="35.2734"
       width="6.0019"
       height="1.9308"
       fill="#FFFFFF"
       stroke="none"
       id="rect22" />
    <rect
       x="52.3672"
       y="35.2734"
       width="2.1134"
       height="2.4038"
       fill="#FFFFFF"
       stroke="none"
       id="rect24" />
  </g>
  <g
     id="hair" />
  <g
     id="skin" />
  <g
     id="skin-shadow" />
  <g
     id="line"
     transform="matrix(1.5007088,0,0,1.344136,-20.210308,-12.138845)">
    <rect
       x="22.357599"
       y="23.2696"
       width="6.0019002"
       height="6.0019002"
       id="rect30"
       style="fill:#000000;stroke:none" />
    <rect
       x="28.359501"
       y="17.2677"
       width="6.0019002"
       height="6.0019002"
       id="rect32"
       style="fill:#000000;stroke:none" />
    <rect
       x="28.359501"
       y="29.2715"
       width="6.0019002"
       height="5.1395998"
       id="rect34"
       style="fill:#000000;stroke:none" />
    <polygon
       points="23.0418,16.6469 28.3595,16.0262 28.3595,17.2677 22.3576,17.2677 "
       id="polygon36"
       style="fill:#000000;stroke:none" />
    <polygon
       points="34.3615,15.6486 40.3634,16.621 40.3634,17.2677 34.3615,17.2677 "
       id="polygon38"
       style="fill:#000000;stroke:none" />
    <rect
       x="34.3615"
       y="23.2696"
       width="6.0019002"
       height="6.0019002"
       id="rect40"
       style="fill:#000000;stroke:none" />
    <polygon
       points="40.3634,18.6459 46.3653,19.9674 46.3653,23.2696 40.3634,23.2696 "
       id="polygon42"
       style="fill:#000000;stroke:none" />
    <rect
       x="40.3634"
       y="29.2715"
       width="6.0019002"
       height="6.0019002"
       id="rect44"
       style="fill:#000000;stroke:none" />
    <rect
       x="46.365299"
       y="23.2696"
       width="6.0019002"
       height="6.0019002"
       id="rect46"
       style="fill:#000000;stroke:none" />
    <rect
       x="52.367199"
       y="20.309401"
       width="1.7444"
       height="2.9602001"
       id="rect48"
       style="fill:#000000;stroke:none" />
    <rect
       x="52.367199"
       y="29.2715"
       width="1.9094"
       height="6.0019002"
       id="rect50"
       style="fill:#000000;stroke:none" />
    <rect
       x="46.365299"
       y="35.273399"
       width="6.0019002"
       height="3.4735"
       id="rect52"
       style="fill:#000000;stroke:none" />
    <path
       stroke-miterlimit="10"
       d="M 23.0844,17.488 C 25.9694,15.6897 31.5062,13.2554 37.5,16 c 3.689,1.6892 5.6344,4.6976 15.0405,4.1142 C 53.3291,20.0653 54,20.7109 54,21.5248 c 0,3.3025 0,11.1393 0,15.1253 0,0.6226 -0.4235,1.0771 -0.9648,1.354 C 51.0882,39 45.7637,38.939 37.5,35 34.1347,33.3959 28.9297,32.4317 23.0418,36.4425"
       id="path54"
       inkscape:connector-curvature="0"
       style="fill:none;stroke:#000000;stroke-width:2;stroke-linecap:round;stroke-linejoin:round;stroke-miterlimit:10" />
    <line
       x1="19.327101"
       x2="19.327101"
       y1="12.875"
       y2="59.834801"
       stroke-miterlimit="10"
       id="line56"
       style="fill:none;stroke:#000000;stroke-width:2;stroke-linecap:round;stroke-miterlimit:10" />
  </g>
</svg>
