<?xml version="1.0" encoding="UTF-8" standalone="no"?>
<!-- Generator: Adobe Illustrator 25.2.1, SVG Export Plug-In . SVG Version: 6.00 Build 0)  -->

<svg
   xmlns:dc="http://purl.org/dc/elements/1.1/"
   xmlns:cc="http://creativecommons.org/ns#"
   xmlns:rdf="http://www.w3.org/1999/02/22-rdf-syntax-ns#"
   xmlns:svg="http://www.w3.org/2000/svg"
   xmlns="http://www.w3.org/2000/svg"
   xmlns:sodipodi="http://sodipodi.sourceforge.net/DTD/sodipodi-0.dtd"
   xmlns:inkscape="http://www.inkscape.org/namespaces/inkscape"
   version="1.1"
   id="Layer_1"
   x="0px"
   y="0px"
   viewBox="0 0 300 300"
   style="enable-background:new 0 0 300 300;"
   xml:space="preserve"
   sodipodi:docname="direction-on-map.svg"
   inkscape:version="0.92.4 (5da689c313, 2019-01-14)"><metadata
   id="metadata15"><rdf:RDF><cc:Work
       rdf:about=""><dc:format>image/svg+xml</dc:format><dc:type
         rdf:resource="http://purl.org/dc/dcmitype/StillImage" /></cc:Work></rdf:RDF></metadata><defs
   id="defs13" /><sodipodi:namedview
   pagecolor="#ffffff"
   bordercolor="#666666"
   borderopacity="1"
   objecttolerance="10"
   gridtolerance="10"
   guidetolerance="10"
   inkscape:pageopacity="0"
   inkscape:pageshadow="2"
   inkscape:window-width="2560"
   inkscape:window-height="1411"
   id="namedview11"
   showgrid="false"
   inkscape:zoom="0.78666667"
   inkscape:cx="150"
   inkscape:cy="150"
   inkscape:window-x="-9"
   inkscape:window-y="-9"
   inkscape:window-maximized="1"
   inkscape:current-layer="Layer_1" />
<style
   type="text/css"
   id="style2">
	.st0{fill-rule:evenodd;clip-rule:evenodd;fill:#1A344D;}
</style>
<g
   id="g8"
   transform="matrix(1.5021186,0,0,1.6017851,-72.13983,-88.42116)"
   style="fill:#000000;fill-opacity:1">
	<path
   class="st0"
   d="m 221.1,155.2 h -44.4 l -4.4,7.6 h 22.1 l -13.7,37.3 c -4.6,0.9 -28.3,4.8 -55.1,-8.5 -19.3,-8.4 -38.6,-4.3 -50,-0.2 l 8.5,-28.6 h 44.2 l -4.2,-7.6 h -48 L 50,244.1 h 200 z m -53.4,81.2 H 62.8 L 74.2,197 c 10,-4 33.8,-11.6 52.3,-2.3 20.9,10.5 46.8,8.9 53.2,8.3 l -11.8,32.6 z m 29.6,-73.6 h 17.6 l 23.8,73.7 h -68.2 z"
   id="path4"
   inkscape:connector-curvature="0"
   style="clip-rule:evenodd;fill:#000000;fill-rule:evenodd;fill-opacity:1" />
	<path
   class="st0"
   d="m 120,142.6 c 2,4.2 4.1,7.5 6.3,12.5 l 4.3,7.6 c 4.2,7.6 8.8,13.7 13.6,20.4 2.1,2.9 4.2,5.6 6.4,8.5 0.1,-0.1 0.2,0.1 0.2,0.1 7.2,-9.4 13.9,-18.8 19.9,-28.9 l 4.4,-7.6 c 2.5,-5.1 4.9,-9.7 7.2,-14.5 5.5,-12.1 9.9,-24.6 10.9,-38 0.3,-3.6 0.2,-7.3 -0.4,-10.9 C 191.5,84 188.3,77 183.1,71 c -6.9,-8 -15.6,-12.9 -26,-14.5 -1.7,-0.3 -2.6,-0.2 -5.1,-0.4 -0.7,0 -1.5,0 -2.2,0 -0.9,0 -0.7,0 -1,0 -10.7,0.6 -19.9,4.6 -27.6,12 -7.8,7.6 -12.1,16.9 -12.8,27.8 -0.4,5.6 0.3,11.3 1.5,16.8 1.9,10.3 5.6,20.4 10.1,29.9 z M 150.7,76 c 12.7,0 23,10.3 23,23 0,12.7 -10.4,22.8 -23.2,22.8 -12.7,0 -22.9,-10.3 -22.9,-22.9 0,-12.7 10.4,-23 23.1,-22.9 z"
   id="path6"
   inkscape:connector-curvature="0"
   style="clip-rule:evenodd;fill:#000000;fill-rule:evenodd;fill-opacity:1" />
</g>
</svg>