<?xml version="1.0" encoding="iso-8859-1"?>
<!-- Generator: Adobe Illustrator 19.0.0, SVG Export Plug-In . SVG Version: 6.00 Build 0)  -->
<svg version="1.1" id="Layer_1" xmlns="http://www.w3.org/2000/svg" xmlns:xlink="http://www.w3.org/1999/xlink" x="0px" y="0px"
	 viewBox="0 0 330 330" style="enable-background:new 0 0 330 330;" xml:space="preserve">
<g id="XMLID_466_">
	<rect id="XMLID_467_" x="170" y="259.609" width="30" height="30"/>
	<rect id="XMLID_468_" x="90" y="259.609" width="30" height="30"/>
	<rect id="XMLID_469_" x="50" y="259.609" width="30" height="30"/>
	<rect id="XMLID_470_" x="130" y="259.609" width="30" height="30"/>
	<rect id="XMLID_472_" x="250" y="259.609" width="30" height="30"/>
	<rect id="XMLID_473_" x="210" y="259.609" width="30" height="30"/>
	<path id="XMLID_474_" d="M150,115.4c0-41.36-33.646-75.009-75.001-75.009C33.644,40.391,0,74.04,0,115.4
		c0,67.33,64.064,109.981,66.792,111.764c2.493,1.629,5.351,2.444,8.207,2.444c2.856,0,5.714-0.815,8.208-2.444
		c0.355-0.233,8.858-5.825,19.521-15.76C124.294,191.316,150,158.354,150,115.4z M75,135.391c-11.045,0-20.001-8.954-20.001-19.999
		c0-11.046,8.956-20.001,20.001-20.001c11.044,0,19.999,8.955,19.999,20.001C94.999,126.437,86.044,135.391,75,135.391z"/>
	<path id="XMLID_477_" d="M254.999,40.391C213.644,40.391,180,74.04,180,115.4c0,67.33,64.064,109.981,66.792,111.764
		c2.493,1.629,5.351,2.444,8.207,2.444c2.857,0,5.714-0.815,8.208-2.444c0.355-0.233,8.858-5.825,19.521-15.76
		C304.294,191.316,330,158.354,330,115.4C330,74.04,296.354,40.391,254.999,40.391z M255,135.391
		c-11.045,0-20.001-8.954-20.001-19.999c0-11.046,8.956-20.001,20.001-20.001c11.044,0,19.999,8.955,19.999,20.001
		C274.999,126.437,266.044,135.391,255,135.391z"/>
</g>
<g>
</g>
<g>
</g>
<g>
</g>
<g>
</g>
<g>
</g>
<g>
</g>
<g>
</g>
<g>
</g>
<g>
</g>
<g>
</g>
<g>
</g>
<g>
</g>
<g>
</g>
<g>
</g>
<g>
</g>
</svg>
