<?xml version="1.0" encoding="UTF-8" standalone="no"?>
<!-- Generator: Adobe Illustrator 16.0.0, SVG Export Plug-In . SVG Version: 6.00 Build 0)  -->

<svg
   xmlns:dc="http://purl.org/dc/elements/1.1/"
   xmlns:cc="http://creativecommons.org/ns#"
   xmlns:rdf="http://www.w3.org/1999/02/22-rdf-syntax-ns#"
   xmlns:svg="http://www.w3.org/2000/svg"
   xmlns="http://www.w3.org/2000/svg"
   xmlns:sodipodi="http://sodipodi.sourceforge.net/DTD/sodipodi-0.dtd"
   xmlns:inkscape="http://www.inkscape.org/namespaces/inkscape"
   version="1.1"
   id="Capa_1"
   x="0px"
   y="0px"
   width="481.823px"
   height="481.823px"
   viewBox="0 0 481.823 481.823"
   style="enable-background:new 0 0 481.823 481.823;"
   xml:space="preserve"
   sodipodi:docname="ebike.svg"
   inkscape:version="0.92.4 (5da689c313, 2019-01-14)"><metadata
   id="metadata42"><rdf:RDF><cc:Work
       rdf:about=""><dc:format>image/svg+xml</dc:format><dc:type
         rdf:resource="http://purl.org/dc/dcmitype/StillImage" /><dc:title></dc:title></cc:Work></rdf:RDF></metadata><defs
   id="defs40">
	
</defs><sodipodi:namedview
   pagecolor="#ffffff"
   bordercolor="#666666"
   borderopacity="1"
   objecttolerance="10"
   gridtolerance="10"
   guidetolerance="10"
   inkscape:pageopacity="0"
   inkscape:pageshadow="2"
   inkscape:window-width="1800"
   inkscape:window-height="1096"
   id="namedview38"
   showgrid="false"
   inkscape:zoom="0.48980642"
   inkscape:cx="240.9115"
   inkscape:cy="240.9115"
   inkscape:window-x="-9"
   inkscape:window-y="14"
   inkscape:window-maximized="1"
   inkscape:current-layer="Capa_1" />
<g
   id="_x31_9_65_">
		<path
   inkscape:connector-curvature="0"
   id="path2"
   d="m 393.043,206.632 c -9.813,0 -19.641,1.697 -29.208,5.044 l -1.996,0.698 -32.147,-58.406 v -25.365 h 38.517 c 7.402,0 13.424,-6.022 13.424,-13.425 0,-7.403 -6.021,-13.425 -13.424,-13.425 H 317.17 c -7.401,0 -13.424,6.022 -13.424,13.425 0,1.084 0.148,2.211 0.44,3.349 l 0.078,0.306 v 25.69 H 187.152 l -9.644,-21.476 h 27.897 c 7.009,0 12.71,-5.703 12.71,-12.714 0,-7.01 -5.701,-12.713 -12.71,-12.713 h -95.083 c -7.011,0 -12.714,5.703 -12.714,12.713 0,7.011 5.703,12.714 12.714,12.714 h 39.322 l 8.49,19.248 -38.149,70.096 -2.007,-0.703 c -9.557,-3.351 -19.38,-5.049 -29.198,-5.049 -48.953,0 -88.78,39.829 -88.78,88.784 0,48.953 39.827,88.779 88.78,88.779 43.436,0 80.206,-31.113 87.434,-73.98 l 0.351,-2.086 h 37.787 l 0.724,0.688 c 5.776,5.48 13.335,8.5 21.284,8.5 17.056,0 30.932,-13.876 30.932,-30.932 0,-2.946 -0.422,-5.881 -1.255,-8.719 l -0.293,-0.998 51.233,-93.079 22.596,41.054 -1.652,1.312 c -21.39,16.999 -33.657,42.316 -33.657,69.462 0,48.952 39.826,88.778 88.779,88.778 48.953,0 88.78,-39.826 88.78,-88.778 0,-48.96 -39.827,-88.792 -88.78,-88.792 z m -263.203,40.541 2.349,2.219 c 8.702,8.213 14.881,18.647 17.867,30.177 l 0.811,3.127 h -40.578 z m 20.216,64.092 c -7.254,27.965 -32.451,47.496 -61.274,47.496 -34.934,0 -63.354,-28.42 -63.354,-63.354 0,-34.934 28.421,-63.353 63.354,-63.353 5.101,0 10.373,0.686 15.672,2.039 l 3.128,0.8 -29.93,54.403 c -0.076,0.199 -0.158,0.396 -0.259,0.59 -0.208,0.43 -0.363,0.803 -0.488,1.164 -0.175,0.463 -0.294,0.838 -0.382,1.197 -0.099,0.373 -0.169,0.73 -0.239,1.193 -0.085,0.504 -0.126,0.924 -0.131,1.293 l -0.005,0.132 c -0.012,0.169 -0.034,0.339 -0.06,0.51 l -0.007,0.056 0.005,0.041 c 0.02,0.144 0.036,0.285 0.045,0.426 0.028,0.504 0.081,0.981 0.145,1.453 0.054,0.344 0.116,0.729 0.214,1.114 0.094,0.378 0.208,0.751 0.354,1.153 0.149,0.45 0.293,0.811 0.464,1.174 0.156,0.348 0.338,0.66 0.549,1.023 l 0.051,0.089 c 0.215,0.377 0.407,0.674 0.611,0.944 0.229,0.313 0.479,0.619 0.814,0.994 0.263,0.285 0.534,0.586 0.834,0.86 0.31,0.28 0.638,0.541 0.97,0.803 0.319,0.239 0.675,0.503 1.029,0.706 l 0.147,0.092 c 0.101,0.067 0.201,0.143 0.302,0.219 l 0.092,0.067 c 0.202,0.064 0.4,0.148 0.598,0.255 0.341,0.166 0.741,0.334 1.105,0.459 0.461,0.17 0.852,0.293 1.258,0.398 0.317,0.084 0.647,0.15 1.119,0.227 0.499,0.084 0.962,0.131 1.427,0.148 0.136,-0.008 0.346,0.021 0.565,0.05 l 62.087,0.009 z m 62.486,-44.608 c -3.338,4.023 -5.611,8.865 -6.574,13.998 l -0.383,2.039 h -29.02 l -0.351,-2.085 c -3.637,-21.568 -15.111,-40.981 -32.312,-54.661 l -1.651,-1.313 29.183,-53.023 42.102,93.848 z m 34.789,-9.263 -1.94,-0.592 c -2.246,-0.686 -4.594,-1.11 -6.979,-1.268 l -1.502,-0.098 -38.342,-85.497 h 96.908 z m 145.712,101.367 c -34.933,0 -63.353,-28.42 -63.353,-63.354 0,-17.544 7.082,-33.887 19.941,-46.018 l 2.35,-2.217 29.927,54.367 c 2.227,4.061 6.499,6.58 11.15,6.58 2.17,0 4.229,-0.529 6.122,-1.575 2.977,-1.635 5.133,-4.331 6.076,-7.593 0.944,-3.264 0.563,-6.705 -1.077,-9.688 l -29.925,-54.372 3.126,-0.8 c 5.291,-1.354 10.564,-2.04 15.678,-2.04 34.934,0 63.354,28.42 63.354,63.353 -0.016,34.937 -28.442,63.357 -63.369,63.357 z" />
	</g>
<g
   id="g7">
</g>
<g
   id="g9">
</g>
<g
   id="g11">
</g>
<g
   id="g13">
</g>
<g
   id="g15">
</g>
<g
   id="g17">
</g>
<g
   id="g19">
</g>
<g
   id="g21">
</g>
<g
   id="g23">
</g>
<g
   id="g25">
</g>
<g
   id="g27">
</g>
<g
   id="g29">
</g>
<g
   id="g31">
</g>
<g
   id="g33">
</g>
<g
   id="g35">
</g>
<g
   id="g6"
   transform="matrix(0.23533627,0,0,-0.27577032,184.04425,277.43536)"><g
     id="g4"><path
       d="M 507.494,426.066 282.864,53.537 c -5.677,-9.415 -15.87,-15.172 -26.865,-15.172 -10.995,0 -21.188,5.756 -26.865,15.172 L 4.506,426.066 c -5.842,9.69 -6.015,21.774 -0.451,31.625 5.564,9.852 16.001,15.944 27.315,15.944 h 449.259 c 11.314,0 21.751,-6.093 27.315,-15.944 5.564,-9.851 5.392,-21.936 -0.45,-31.625 z m -185.811,-146.2 -84.443,115.46 c -1.921,2.627 -5.414,3.561 -8.39,2.244 -2.976,-1.317 -4.634,-4.529 -3.981,-7.718 L 242.425,304.02 H 199.12 c -4.181,0 -8.007,-2.349 -9.899,-6.077 -1.892,-3.728 -1.53,-8.204 0.938,-11.578 l 84.443,-115.461 c 1.921,-2.627 5.414,-3.561 8.39,-2.244 2.977,1.317 4.634,4.529 3.981,7.718 l -17.556,85.832 h 43.304 c 4.181,0 8.007,2.349 9.899,6.077 1.894,3.728 1.531,8.204 -0.937,11.579 z"
       id="path2-2"
       inkscape:connector-curvature="0" /></g></g></svg>