<?xml version="1.0" encoding="UTF-8" standalone="no"?>
<svg
   xmlns:dc="http://purl.org/dc/elements/1.1/"
   xmlns:cc="http://creativecommons.org/ns#"
   xmlns:rdf="http://www.w3.org/1999/02/22-rdf-syntax-ns#"
   xmlns:svg="http://www.w3.org/2000/svg"
   xmlns="http://www.w3.org/2000/svg"
   xmlns:sodipodi="http://sodipodi.sourceforge.net/DTD/sodipodi-0.dtd"
   xmlns:inkscape="http://www.inkscape.org/namespaces/inkscape"
   viewBox="0 0 50 50"
   version="1.1"
   id="svg4"
   sodipodi:docname="fullscreen.svg"
   inkscape:version="0.92.4 (5da689c313, 2019-01-14)">
  <metadata
     id="metadata10">
    <rdf:RDF>
      <cc:Work
         rdf:about="">
        <dc:format>image/svg+xml</dc:format>
        <dc:type
           rdf:resource="http://purl.org/dc/dcmitype/StillImage" />
      </cc:Work>
    </rdf:RDF>
  </metadata>
  <defs
     id="defs8" />
  <sodipodi:namedview
     pagecolor="#ffffff"
     bordercolor="#666666"
     borderopacity="1"
     objecttolerance="10"
     gridtolerance="10"
     guidetolerance="10"
     inkscape:pageopacity="0"
     inkscape:pageshadow="2"
     inkscape:window-width="1800"
     inkscape:window-height="1096"
     id="namedview6"
     showgrid="false"
     inkscape:zoom="4.72"
     inkscape:cx="25"
     inkscape:cy="25"
     inkscape:window-x="-9"
     inkscape:window-y="14"
     inkscape:window-maximized="1"
     inkscape:current-layer="svg4" />
  <path
     style="font-weight:400;line-height:normal;font-family:sans-serif;text-indent:0;text-align:start;text-decoration:none;text-decoration-line:none;text-decoration-style:solid;text-decoration-color:#000000;text-transform:none;white-space:normal;overflow:visible;isolation:auto;mix-blend-mode:normal;stroke-width:1.06741953"
     d="m 3,3.7627119 c -0.265,0 -0.5200313,0.1207392 -0.7070312,0.3338041 C 2.1049688,4.3095808 2,4.6001594 2,4.9020963 V 24.576506 C 2.294,24.381672 2.636,24.271632 3,24.271632 H 4 V 6.0414808 H 46 V 44.780553 H 30 v 1.139384 c 0,0.414736 -0.09658,0.804406 -0.267578,1.139385 H 47 c 0.265,0 0.520031,-0.1196 0.707031,-0.333804 C 47.895031,46.512453 48,46.221875 48,45.919937 V 4.9020963 C 48,4.6001594 47.895031,4.3107202 47.707031,4.096516 47.520031,3.8823117 47.265,3.7627119 47,3.7627119 Z m 33,5.6969224 a 1.0001,1.1394984 0 1 0 0,2.2787687 h 3.585938 L 29.292969,23.466052 a 1.0001,1.1394984 0 1 0 1.414062,1.611161 L 41,13.349564 v 4.085762 a 1.0001,1.1394984 0 1 0 2,0 V 9.4596343 Z M 3,26.550402 a 1.0001,1.1394984 0 0 0 -1,1.139384 v 18.230151 a 1.0001,1.1394984 0 0 0 1,1.139385 h 24 a 1.0001,1.1394984 0 0 0 1,-1.139385 V 27.689786 a 1.0001,1.1394984 0 0 0 -1,-1.139384 z m 1,2.278769 H 26 V 44.780553 H 4 Z"
     font-weight="400"
     overflow="visible"
     id="path2"
     inkscape:connector-curvature="0" />
</svg>
