<?xml version="1.0" encoding="UTF-8" standalone="no"?>
<svg
   xmlns:dc="http://purl.org/dc/elements/1.1/"
   xmlns:cc="http://creativecommons.org/ns#"
   xmlns:rdf="http://www.w3.org/1999/02/22-rdf-syntax-ns#"
   xmlns:svg="http://www.w3.org/2000/svg"
   xmlns="http://www.w3.org/2000/svg"
   xmlns:sodipodi="http://sodipodi.sourceforge.net/DTD/sodipodi-0.dtd"
   xmlns:inkscape="http://www.inkscape.org/namespaces/inkscape"
   viewBox="0 0 50 50"
   version="1.1"
   id="svg4"
   sodipodi:docname="fullscreen-off.svg"
   inkscape:version="0.92.4 (5da689c313, 2019-01-14)">
  <metadata
     id="metadata10">
    <rdf:RDF>
      <cc:Work
         rdf:about="">
        <dc:format>image/svg+xml</dc:format>
        <dc:type
           rdf:resource="http://purl.org/dc/dcmitype/StillImage" />
        <dc:title></dc:title>
      </cc:Work>
    </rdf:RDF>
  </metadata>
  <defs
     id="defs8" />
  <sodipodi:namedview
     pagecolor="#ffffff"
     bordercolor="#666666"
     borderopacity="1"
     objecttolerance="10"
     gridtolerance="10"
     guidetolerance="10"
     inkscape:pageopacity="0"
     inkscape:pageshadow="2"
     inkscape:window-width="1800"
     inkscape:window-height="1096"
     id="namedview6"
     showgrid="false"
     inkscape:zoom="4.72"
     inkscape:cx="25"
     inkscape:cy="-1.1886001"
     inkscape:window-x="-9"
     inkscape:window-y="14"
     inkscape:window-maximized="1"
     inkscape:current-layer="svg4" />
  <g
     transform="matrix(3.7795276,0,0,3.7795276,-317.52193,-391.50269)"
     id="g842">
    <path
       sodipodi:nodetypes="cccccccccccccccccccccccscscsscsscscccccccccccccccccccccccccscccccccccccccccc"
       inkscape:connector-curvature="0"
       d="m 340.85742,395.15625 c -0.55269,6e-5 -3.00055,0.51091 -3,1.14063 l 1.52735,0.9375 c 0.69287,0.11239 1.70105,0.27927 1.73437,0.27929 0.003,1.5e-4 0.004,-0.002 0.008,-0.002 0.002,2e-4 0.003,0.002 0.006,0.002 0.0115,1e-5 0.0254,-10e-6 0.0352,0 0.0379,5e-5 0.1367,-10e-5 0.13672,0 6.8e-4,0.004 9e-4,0.002 0.002,0.006 0.0649,6.9e-4 0.14402,-2.5e-4 0.17969,0.01 0.0394,-0.0123 0.0677,-0.0191 0.1914,-0.0293 0.0379,-0.004 0.0834,-0.024 0.125,-0.0352 0.022,-0.006 0.0362,0.006 0.0547,0.008 l -4,-0.0371 h 26 v 15.46875 23.27148 h -42 v -38.74023 h 16 v -0.41016 c -1.47205,-0.25316 -2.94496,-0.50783 -2.92969,-0.50781 0.0545,8e-5 1.4966,0.236 2.92969,0.4707 v -0.6914 c 0,-0.41473 0.0966,-0.8037 0.26758,-1.13868 h -17.26758 c -0.26498,0 -0.52003,0.11774 -0.70703,0.33203 -0.18799,0.21317 -0.29297,0.5047 -0.29297,0.80665 v 41.01757 c 0,0.30199 0.10498,0.59047 0.29297,0.80469 0.18701,0.2143 0.44203,0.33398 0.70703,0.33398 h 44 c 0.26502,0 0.52003,-0.12081 0.70703,-0.33398 0.188,-0.21316 0.29297,-0.50278 0.29297,-0.80469 v -19.67383 c -0.0223,0.0148 -0.0495,0.0194 -0.0723,0.0332 0.0437,-1.31755 0.0653,-2.40271 0.0684,-2.84571 -0.2135,0.4044 -1.52186,0.0716 -1.54883,0.8379 l 0.30859,2.27929 h -0.33398 c -0.0412,0.2235 -0.17066,-4.38754 -0.35742,-4.98828 0.18689,0.11567 1.85422,1.55406 1.93554,1.57031 v -18.23046 c 5.5e-4,-0.62972 -0.44731,-1.14057 -1,-1.14063 z m 25,19.37109 c -2e-5,0.0313 -0.003,0.23798 -0.004,0.30078 0.0391,-0.0741 0.054,-0.1651 0.004,-0.30078 z m -28,-17.53906 v 0.0371 c 0.82823,0.14244 1.11212,0.19241 1.64844,0.28516 l -0.12109,-0.0762 c -0.61018,-0.099 -0.78017,-0.12373 -1.52735,-0.2461 z m 1.64844,0.32227 0.35156,0.21484 c 0.024,-0.002 0.0371,-0.008 0.0664,-0.008 v -0.002 c 0,0 0.0604,2e-5 0.0723,0 0.0247,1.5e-4 0.0302,-0.002 0.0586,-0.002 0.0202,0 0.0404,10e-6 0.0605,0 0.006,-0.001 0.0116,-0.005 0.0176,-0.006 0.18886,-0.0388 0.36633,-0.0156 0.55078,0.006 0.006,10e-6 -0.79459,-0.13686 -1.17773,-0.20312 z m -1.65625,19.47851 c -0.26448,0.007 -0.5159,0.13229 -0.69922,0.34961 l -10.29297,11.72852 v -4.08594 c 0.0191,-1.54082 -2.01913,-1.54082 -2,0 v 7.97461 h 7 c 1.3843,0.0602 1.3843,-2.33752 0,-2.27734 h -3.58594 L 338.56445,418.75 c 0.65722,-0.71942 0.19632,-1.98374 -0.71484,-1.96094 z"
       style="font-weight:400;line-height:normal;font-family:sans-serif;text-indent:0;text-align:start;text-decoration:none;text-decoration-line:none;text-decoration-style:solid;text-decoration-color:#000000;text-transform:none;white-space:normal;overflow:visible;isolation:auto;mix-blend-mode:normal;stroke-width:1.06741953"
       transform="scale(0.26458333)"
       id="path2" />
    <path
       inkscape:connector-curvature="0"
       d="m 329.37891,395.18555 c -0.69084,0 -0.92899,0.007 -1.53516,0.008 0.97309,0.16681 2.07573,0.35848 2.56445,0.42969 1.29364,0.0129 2.22126,0.0254 4.10352,0.0527 3.27085,0.0476 2.37908,0.0312 3.39062,0.0469 0.0208,-0.10256 0.0393,-0.2762 0.0566,-0.32032 0.0812,-0.20606 -0.37721,-0.21679 -8.58007,-0.21679 z m -5.35157,0.0254 c -1.79308,0.0181 -3.04569,0.0465 -3.35742,0.0898 1.44031,0.0875 2.71302,0.15452 3.8086,0.19727 0.0453,-0.0627 0.0988,-0.12162 0.15234,-0.17969 -0.24947,-0.0441 -0.35503,-0.0634 -0.60352,-0.10742 z m 1.44922,0.2539 c -0.0306,0.0207 -0.0566,0.0448 -0.0859,0.0664 0.19673,0.006 0.41943,0.0163 0.61329,0.0215 -0.22235,-0.0388 -0.30155,-0.0483 -0.52735,-0.0879 z m -0.64844,0.71875 c 10e-4,0.0135 0.004,0.0272 0.008,0.041 1.12053,0.18368 2.43119,0.39929 3.98828,0.64648 1.84063,0.0663 3.67781,0.11745 5.98047,0.19141 0.90565,0.004 1.81122,0.008 2.71679,0.0156 -0.13811,-0.0482 -0.40961,-0.10506 -0.6875,-0.16015 -0.006,-3.3e-4 -0.0115,3.3e-4 -0.0176,0 -2.02306,-0.10999 -4.04392,-0.30297 -6.05274,-0.56641 -0.0503,-0.007 -0.28214,-0.0478 -0.34375,-0.0566 -1.8515,-0.0182 -3.93871,-0.052 -5.5918,-0.11133 z m -4.79882,0.0508 c -0.004,0.0372 -0.01,0.0566 -0.0137,0.0976 0.53676,0.0473 0.90966,0.095 1.5918,0.14649 0.31102,0.0235 0.56053,0.0356 0.85742,0.0566 -0.78182,-0.1149 -1.58676,-0.21258 -2.43554,-0.30078 z m -0.0762,1.12304 c -0.002,0.0537 -0.006,0.0953 -0.008,0.15235 0.55521,0.10448 1.15499,0.21909 1.9043,0.36132 v -0.0742 c -0.63498,-0.14828 -1.27328,-0.29498 -1.89649,-0.43946 z m -0.0351,1.4707 c -8e-5,0.004 -0.002,0.0119 -0.002,0.0156 0.5539,0.12945 1.10804,0.25813 1.6621,0.38672 0.15356,0.007 0.19719,0.0112 0.27149,0.0156 v -0.0351 c -0.13689,-0.0238 -0.27372,-0.0478 -0.41016,-0.0742 -0.59165,-0.11436 -1.04244,-0.20969 -1.52148,-0.3086 z m -0.008,0.69727 c -0.0469,2.8855 -0.0511,7.64211 -0.0508,17.20508 4.3e-4,13.68372 0.0428,20.58448 0.1289,20.89453 0.0707,0.25464 0.22478,0.51969 0.3418,0.58789 0.13924,0.0812 7.92579,0.12495 22.53125,0.12695 l 22.31836,0.006 0.28711,-0.27148 0.28711,-0.26953 v -11.375 -11.375 l -0.52735,0.084 c -0.85162,0.13509 -0.90312,0.24388 -0.72265,1.56445 0.0854,0.62476 0.12392,1.16718 0.0859,1.20508 -0.0379,0.0376 -0.1542,0.0369 -0.25976,-0.004 -0.15148,-0.0581 -0.19508,-0.30425 -0.20508,-1.16602 -0.007,-0.60072 -0.0545,-1.56892 -0.10547,-2.15039 -0.051,-0.58146 -0.10073,4.05075 -0.11133,10.29297 l -0.0195,11.34961 h -21.01953 -21.01953 v -19.4043 -16.84765 c -0.1283,-0.0298 -0.25646,-0.06 -0.38477,-0.0899 -0.18245,-0.002 -0.38402,0.0499 -0.55468,0.0117 -0.21957,0.0822 -0.4041,0.10766 -0.47266,-0.0469 -0.0288,-0.0648 -0.0254,-0.13566 -0.008,-0.20704 -0.17322,-0.0402 -0.34635,-0.0808 -0.51953,-0.12109 z"
       style="opacity:0.522;fill:#000000;fill-opacity:1;stroke:#000000;stroke-width:0.04700905;stroke-miterlimit:4;stroke-dasharray:none;stroke-opacity:1"
       transform="scale(0.26458333)"
       id="path1439" />
    <rect
       y="104.57736"
       x="88.952919"
       height="0.59805536"
       width="1.1862847"
       id="rect1606"
       style="opacity:0.522;fill:#000000;fill-opacity:1;stroke:#000000;stroke-width:0.1;stroke-miterlimit:4;stroke-dasharray:none;stroke-opacity:0" />
    <rect
       y="104.55407"
       x="88.954231"
       height="0.59175175"
       width="1.4943494"
       id="rect1610"
       style="opacity:1;fill:#000000;fill-opacity:1;stroke:#000000;stroke-width:0.10028078;stroke-miterlimit:4;stroke-dasharray:none;stroke-opacity:0" />
    <rect
       y="108.75777"
       x="96.343613"
       height="2.2930555"
       width="0.4586111"
       id="rect1612"
       style="opacity:1;fill:#000000;fill-opacity:1;stroke:#000000;stroke-width:0.1;stroke-miterlimit:4;stroke-dasharray:none;stroke-opacity:0" />
    <rect
       y="109.26168"
       x="96.287773"
       height="1.3198156"
       width="0.18293291"
       id="rect1616"
       style="opacity:1;fill:#000000;fill-opacity:1;stroke:#000000;stroke-width:0.1;stroke-miterlimit:4;stroke-dasharray:none;stroke-opacity:0" />
  </g>
</svg>
