<?xml version="1.0" encoding="UTF-8" standalone="no"?>
<svg
   xmlns:dc="http://purl.org/dc/elements/1.1/"
   xmlns:cc="http://creativecommons.org/ns#"
   xmlns:rdf="http://www.w3.org/1999/02/22-rdf-syntax-ns#"
   xmlns:svg="http://www.w3.org/2000/svg"
   xmlns="http://www.w3.org/2000/svg"
   xmlns:sodipodi="http://sodipodi.sourceforge.net/DTD/sodipodi-0.dtd"
   xmlns:inkscape="http://www.inkscape.org/namespaces/inkscape"
   id="Layer_1"
   data-name="Layer 1"
   viewBox="0 0 102.16 122.88"
   version="1.1"
   sodipodi:docname="hike.svg"
   inkscape:version="0.92.4 (5da689c313, 2019-01-14)">
  <metadata
     id="metadata11">
    <rdf:RDF>
      <cc:Work
         rdf:about="">
        <dc:format>image/svg+xml</dc:format>
        <dc:type
           rdf:resource="http://purl.org/dc/dcmitype/StillImage" />
        <dc:title>hike</dc:title>
      </cc:Work>
    </rdf:RDF>
  </metadata>
  <defs
     id="defs9" />
  <sodipodi:namedview
     pagecolor="#ffffff"
     bordercolor="#666666"
     borderopacity="1"
     objecttolerance="10"
     gridtolerance="10"
     guidetolerance="10"
     inkscape:pageopacity="0"
     inkscape:pageshadow="2"
     inkscape:window-width="793"
     inkscape:window-height="480"
     id="namedview7"
     showgrid="false"
     inkscape:zoom="1.920573"
     inkscape:cx="51.080002"
     inkscape:cy="61.439999"
     inkscape:window-x="741"
     inkscape:window-y="252"
     inkscape:window-maximized="0"
     inkscape:current-layer="Layer_1" />
  <title
     id="title2">hike</title>
  <path
     d="M42.08,68.7a68,68,0,0,0,7.74,4c7.53,3.51,13.72,6.4,15.05,18.23a36.81,36.81,0,0,1,0,6.3v0c0,.32,0,.66-.07,1.46l-.8,16.8c7.24,0,14.23.23,20.39.6,1.39-.32,3.35-1,5.42-1.52L73.63,54.26l-2.39.94h0l-.89.32c-5.19,1.84-8.95,3.17-15.53,1.55a.34.34,0,0,1-.14,0c-4.6-1.78-7-4.26-9.31-6.69L45,50l-3,18.73ZM9.61,29.51l8.36.6c2.12.15,3.49,2.64,3.11,4.93L16.57,62.29c-.36,2.19-10.93,4-13.4,4.62C1.11,67.45-.33,64.27.07,62L5.12,32.92a4.11,4.11,0,0,1,4.49-3.41Zm41,86.17c.13-6.57.35-10.93.72-18l0-1.07a31,31,0,0,0,.07-3.43,8,8,0,0,0-.67-2.88L50.7,90c-.47-1-.9-2-1.54-2.27a54.32,54.32,0,0,0-5.65-2.11c-2.66-.87-5.62-1.76-8.24-2.5C33.35,89.51,30.74,97.2,28,104.52c-2.14,5.6-5,9.15-7.26,13,8.43-1,19.06-1.62,30-1.88ZM5,120.94c2.45-6,6.93-13.38,9.69-21.29,2.84-8.13,5.56-16.42,7.56-23.08a21.28,21.28,0,0,1-3.11-4.89,10.93,10.93,0,0,1-.84-6.45L22,45.44C23.46,34.8,23.74,29.06,35,29.81c10.63.69,15.61,6.29,19.47,10.63,1.71,1.92,3.19,3.58,4.78,4.34.75.36,1.94-.14,3.28-.71a22,22,0,0,1,2.59-1l1.16-.44.67-.25,3.14-1.25-1.29-4.83a3.41,3.41,0,0,1,6.58-1.76l1.09,4.06.15-.06h0a5.06,5.06,0,0,1,4.13.61,7.24,7.24,0,0,1,2.4,2.37,6.58,6.58,0,0,1,1,3.52,8.79,8.79,0,0,1-3,6.1.84.84,0,0,1-.31.19l-.94.37L96.7,114a4.3,4.3,0,0,1,2.31,1.2,14.92,14.92,0,0,1,2.67,4.17l.48,3.52h-99c0-.7.67-1.35,1.85-1.94ZM35.88.69a12.74,12.74,0,1,1-7.33,6.45A12.7,12.7,0,0,1,35.88.69Z"
     id="path4" />
</svg>
