<?xml version="1.0" encoding="UTF-8" standalone="no"?>
<!-- Generator: Adobe Illustrator 16.0.0, SVG Export Plug-In . SVG Version: 6.00 Build 0)  -->

<svg
   xmlns:dc="http://purl.org/dc/elements/1.1/"
   xmlns:cc="http://creativecommons.org/ns#"
   xmlns:rdf="http://www.w3.org/1999/02/22-rdf-syntax-ns#"
   xmlns:svg="http://www.w3.org/2000/svg"
   xmlns="http://www.w3.org/2000/svg"
   xmlns:sodipodi="http://sodipodi.sourceforge.net/DTD/sodipodi-0.dtd"
   xmlns:inkscape="http://www.inkscape.org/namespaces/inkscape"
   version="1.1"
   id="Capa_1"
   x="0px"
   y="0px"
   width="350.451px"
   height="350.451px"
   viewBox="0 0 350.451 350.451"
   style="enable-background:new 0 0 350.451 350.451;"
   xml:space="preserve"
   sodipodi:docname="lorry.svg"
   inkscape:version="0.92.4 (5da689c313, 2019-01-14)"><metadata
   id="metadata47"><rdf:RDF><cc:Work
       rdf:about=""><dc:format>image/svg+xml</dc:format><dc:type
         rdf:resource="http://purl.org/dc/dcmitype/StillImage" /><dc:title></dc:title></cc:Work></rdf:RDF></metadata><defs
   id="defs45">
	
</defs><sodipodi:namedview
   pagecolor="#ffffff"
   bordercolor="#666666"
   borderopacity="1"
   objecttolerance="10"
   gridtolerance="10"
   guidetolerance="10"
   inkscape:pageopacity="0"
   inkscape:pageshadow="2"
   inkscape:window-width="1800"
   inkscape:window-height="1096"
   id="namedview43"
   showgrid="false"
   inkscape:zoom="0.67341799"
   inkscape:cx="175.22549"
   inkscape:cy="-196.47294"
   inkscape:window-x="-9"
   inkscape:window-y="14"
   inkscape:window-maximized="1"
   inkscape:current-layer="g8" />
<g
   id="g8"
   transform="matrix(-1,0,0,1,350.45,0)">
		
		
		
	<g
   id="g6"
   transform="matrix(2.6919464,0,0,2.7019697,6.8553641,104.67055)"><path
     class="st0"
     d="m 120.11,5.33 c -0.76,-3.61 -2.9,-5.24 -6.12,-5.32 H 51.31 C 47,0.01 39.75,-0.27 36.28,2.65 30.38,6.86 25.79,14.32 20.81,19.18 16.76,19.7 7.39,21.09 5.23,23.01 2.74,25.23 2.77,32.38 2.8,35.41 -1.83,35.32 0.04,46.53 3.04,47.17 h 6.45 c -4.14,-24.65 31,-21.59 25.7,0 h 46.66 c -5.43,-20.67 29.19,-25.49 25.86,0.26 2.58,-0.26 3.9,-0.52 6.48,-0.78 4.95,-0.5 8.52,-0.33 8.52,-6.81 0.46,-12.84 0.1,-24.85 -2.6,-34.51 z m -25.1,34.04 c 2.84,0 5.14,2.3 5.14,5.14 0,2.84 -2.3,5.14 -5.14,5.14 -2.84,0 -5.14,-2.3 -5.14,-5.14 0,-2.83 2.3,-5.14 5.14,-5.14 z M 47.68,4.47 h -6.44 c -4.27,0 -9.97,6.17 -13.2,12.25 -0.33,0.62 -2.9,4.87 -1.18,4.87 H 47.67 V 20.94 5.12 4.47 Z m -25.56,34.9 c 2.84,0 5.14,2.3 5.14,5.14 0,2.84 -2.3,5.14 -5.14,5.14 -2.84,0 -5.14,-2.3 -5.14,-5.14 0,-2.83 2.3,-5.14 5.14,-5.14 z m 0,-5.32 c 5.78,0 10.46,4.68 10.46,10.46 0,5.78 -4.68,10.46 -10.46,10.46 -5.78,0 -10.46,-4.68 -10.46,-10.46 0,-5.77 4.69,-10.46 10.46,-10.46 z m 72.89,0 c 5.78,0 10.46,4.68 10.46,10.46 0,5.78 -4.68,10.46 -10.46,10.46 -5.78,0 -10.46,-4.68 -10.46,-10.46 0,-5.77 4.68,-10.46 10.46,-10.46 z"
     id="path4"
     inkscape:connector-curvature="0"
     style="clip-rule:evenodd;fill-rule:evenodd" /></g></g>
<g
   id="g12">
</g>
<g
   id="g14">
</g>
<g
   id="g16">
</g>
<g
   id="g18">
</g>
<g
   id="g20">
</g>
<g
   id="g22">
</g>
<g
   id="g24">
</g>
<g
   id="g26">
</g>
<g
   id="g28">
</g>
<g
   id="g30">
</g>
<g
   id="g32">
</g>
<g
   id="g34">
</g>
<g
   id="g36">
</g>
<g
   id="g38">
</g>
<g
   id="g40">
</g>
</svg>