<?xml version="1.0" encoding="UTF-8" standalone="no"?>
<!-- Generator: Adobe Illustrator 19.0.0, SVG Export Plug-In . SVG Version: 6.00 Build 0)  -->

<svg
   xmlns:dc="http://purl.org/dc/elements/1.1/"
   xmlns:cc="http://creativecommons.org/ns#"
   xmlns:rdf="http://www.w3.org/1999/02/22-rdf-syntax-ns#"
   xmlns:svg="http://www.w3.org/2000/svg"
   xmlns="http://www.w3.org/2000/svg"
   xmlns:sodipodi="http://sodipodi.sourceforge.net/DTD/sodipodi-0.dtd"
   xmlns:inkscape="http://www.inkscape.org/namespaces/inkscape"
   version="1.1"
   id="Layer_1"
   x="0px"
   y="0px"
   viewBox="0 0 512.009 512.009"
   style="enable-background:new 0 0 512.009 512.009;"
   xml:space="preserve"
   sodipodi:docname="roundabout-exit.svg"
   inkscape:version="0.92.4 (5da689c313, 2019-01-14)"><metadata
   id="metadata47"><rdf:RDF><cc:Work
       rdf:about=""><dc:format>image/svg+xml</dc:format><dc:type
         rdf:resource="http://purl.org/dc/dcmitype/StillImage" /><dc:title></dc:title></cc:Work></rdf:RDF></metadata><defs
   id="defs45" /><sodipodi:namedview
   pagecolor="#ffffff"
   bordercolor="#666666"
   borderopacity="1"
   objecttolerance="10"
   gridtolerance="10"
   guidetolerance="10"
   inkscape:pageopacity="0"
   inkscape:pageshadow="2"
   inkscape:window-width="793"
   inkscape:window-height="480"
   id="namedview43"
   showgrid="false"
   inkscape:zoom="0.46092942"
   inkscape:cx="256.00449"
   inkscape:cy="256.00449"
   inkscape:window-x="0"
   inkscape:window-y="0"
   inkscape:window-maximized="0"
   inkscape:current-layer="Layer_1" />
<g
   id="g10"
   transform="rotate(-90,256.0005,256.00287)">
	<g
   id="g8">
		<g
   id="g6">
			<path
   d="m 509.433,298.156 c 0.283,-0.523 0.534,-1.058 0.77,-1.599 0.043,-0.097 0.093,-0.19 0.134,-0.288 0.223,-0.531 0.413,-1.072 0.592,-1.617 0.039,-0.119 0.087,-0.233 0.124,-0.353 0.179,-0.581 0.324,-1.168 0.453,-1.76 0.02,-0.09 0.047,-0.177 0.066,-0.268 0.572,-2.816 0.572,-5.722 0,-8.538 -0.018,-0.091 -0.046,-0.177 -0.066,-0.268 -0.128,-0.591 -0.274,-1.179 -0.453,-1.76 -0.037,-0.119 -0.085,-0.233 -0.123,-0.351 -0.178,-0.545 -0.369,-1.086 -0.592,-1.618 -0.041,-0.098 -0.092,-0.191 -0.134,-0.288 -0.236,-0.54 -0.487,-1.076 -0.77,-1.599 -0.028,-0.052 -0.062,-0.101 -0.091,-0.154 -0.957,-1.731 -2.157,-3.364 -3.632,-4.829 l -64.427,-64 c -8.359,-8.303 -21.866,-8.259 -30.17,0.1 -8.303,8.359 -8.259,21.866 0.1,30.17 l 27.715,27.532 h -56.646 c -11.231,-69.768 -76.002,-128 -147.617,-128 -71.615,0 -136.386,58.232 -147.617,128 H 21.333 C 9.551,266.671 0,276.222 0,288.004 c 0,11.782 9.551,21.333 21.333,21.333 h 85.333 c 11.782,0 21.333,-9.551 21.333,-21.333 0,-55.247 51.419,-106.667 106.667,-106.667 55.248,0 106.667,51.419 106.667,106.667 0,11.782 9.551,21.333 21.333,21.333 h 76.262 l -27.715,27.532 c -8.359,8.303 -8.404,21.811 -0.1,30.17 8.304,8.359 21.811,8.404 30.17,0.1 l 64.427,-64 c 1.475,-1.465 2.675,-3.098 3.632,-4.829 0.029,-0.052 0.063,-0.101 0.091,-0.154 z"
   id="path2"
   inkscape:connector-curvature="0" />
			<path
   d="m 234.667,202.671 c -47.131,0 -85.333,38.202 -85.333,85.333 0,47.131 38.202,85.333 85.333,85.333 47.131,0 85.333,-38.201 85.333,-85.333 0,-47.132 -38.202,-85.333 -85.333,-85.333 z m 0,128 C 211.1,330.671 192,311.572 192,288.004 c 0,-23.568 19.099,-42.667 42.667,-42.667 23.568,0 42.667,19.099 42.667,42.667 0,23.568 -19.1,42.667 -42.667,42.667 z"
   id="path4"
   inkscape:connector-curvature="0" />
		</g>
	</g>
</g>
<g
   id="g12">
</g>
<g
   id="g14">
</g>
<g
   id="g16">
</g>
<g
   id="g18">
</g>
<g
   id="g20">
</g>
<g
   id="g22">
</g>
<g
   id="g24">
</g>
<g
   id="g26">
</g>
<g
   id="g28">
</g>
<g
   id="g30">
</g>
<g
   id="g32">
</g>
<g
   id="g34">
</g>
<g
   id="g36">
</g>
<g
   id="g38">
</g>
<g
   id="g40">
</g>
</svg>