<?xml version="1.0" encoding="iso-8859-1"?>
<!-- Generator: Adobe Illustrator 18.0.0, SVG Export Plug-In . SVG Version: 6.00 Build 0)  -->
<!DOCTYPE svg PUBLIC "-//W3C//DTD SVG 1.1//EN" "http://www.w3.org/Graphics/SVG/1.1/DTD/svg11.dtd">
<svg version="1.1" id="Capa_1" xmlns="http://www.w3.org/2000/svg" xmlns:xlink="http://www.w3.org/1999/xlink" x="0px" y="0px"
	 viewBox="0 0 312.071 312.071" style="enable-background:new 0 0 312.071 312.071;" xml:space="preserve">
<path style="fill:#231F20;" d="M309.875,187.709l-14.143-14.143c-2.929-2.929-7.677-2.93-10.607,0l-52.677,52.677V138.16
	c0-64.085-52.137-116.223-116.221-116.223C52.14,21.937,0,74.074,0,138.16v131.014c0,4.142,3.357,7.5,7.5,7.5h20
	c4.143,0,7.5-3.358,7.5-7.5V138.16c0-44.786,36.438-81.223,81.228-81.223c44.785,0,81.221,36.437,81.221,81.223v88.083
	l-52.676-52.676c-1.407-1.407-3.315-2.197-5.304-2.197c-1.989,0-3.896,0.79-5.304,2.197l-14.142,14.143
	c-1.406,1.406-2.196,3.314-2.196,5.303c0,1.989,0.79,3.897,2.196,5.303l89.622,89.622c1.465,1.465,3.384,2.197,5.304,2.197
	c1.919,0,3.839-0.732,5.304-2.197l89.623-89.622c1.406-1.406,2.196-3.314,2.196-5.303
	C312.071,191.023,311.281,189.116,309.875,187.709z"/>
<g>
</g>
<g>
</g>
<g>
</g>
<g>
</g>
<g>
</g>
<g>
</g>
<g>
</g>
<g>
</g>
<g>
</g>
<g>
</g>
<g>
</g>
<g>
</g>
<g>
</g>
<g>
</g>
<g>
</g>
</svg>
