<?xml version="1.0" encoding="UTF-8" standalone="no"?>
<!-- Generator: Adobe Illustrator 16.0.0, SVG Export Plug-In . SVG Version: 6.00 Build 0)  -->

<svg
   xmlns:dc="http://purl.org/dc/elements/1.1/"
   xmlns:cc="http://creativecommons.org/ns#"
   xmlns:rdf="http://www.w3.org/1999/02/22-rdf-syntax-ns#"
   xmlns:svg="http://www.w3.org/2000/svg"
   xmlns="http://www.w3.org/2000/svg"
   xmlns:sodipodi="http://sodipodi.sourceforge.net/DTD/sodipodi-0.dtd"
   xmlns:inkscape="http://www.inkscape.org/namespaces/inkscape"
   version="1.1"
   id="Capa_1"
   x="0px"
   y="0px"
   width="350.451px"
   height="350.451px"
   viewBox="0 0 350.451 350.451"
   style="enable-background:new 0 0 350.451 350.451;"
   xml:space="preserve"
   sodipodi:docname="walk.svg"
   inkscape:version="0.92.4 (5da689c313, 2019-01-14)"><metadata
   id="metadata47"><rdf:RDF><cc:Work
       rdf:about=""><dc:format>image/svg+xml</dc:format><dc:type
         rdf:resource="http://purl.org/dc/dcmitype/StillImage" /><dc:title></dc:title></cc:Work></rdf:RDF></metadata><defs
   id="defs45">
	
</defs><sodipodi:namedview
   pagecolor="#ffffff"
   bordercolor="#666666"
   borderopacity="1"
   objecttolerance="10"
   gridtolerance="10"
   guidetolerance="10"
   inkscape:pageopacity="0"
   inkscape:pageshadow="2"
   inkscape:window-width="1800"
   inkscape:window-height="1096"
   id="namedview43"
   showgrid="false"
   inkscape:zoom="0.67341799"
   inkscape:cx="175.22549"
   inkscape:cy="175.22549"
   inkscape:window-x="-9"
   inkscape:window-y="14"
   inkscape:window-maximized="1"
   inkscape:current-layer="g8" />
<g
   id="g8"
   transform="matrix(-1,0,0,1,350.45,0)">
		
		
		
	<g
   id="g4"
   transform="matrix(2.4250129,0,0,1.8338066,69.011068,58.848634)"><path
     d="m 33.53,71.7 c 2.2,-1.03 4.53,-2.11 6.85,-3.51 L 37.95,52.75 c -2.04,2.06 -4.4,4.06 -8.37,5.59 l -0.23,0.08 C 22.54,60.1 18.71,58.74 13.42,56.86 8.95,55.27 4.47,53.7 0,52.12 l 4.9,-14.75 12.61,4.44 1.76,0.67 c 0.93,0.26 1.81,0.63 2.64,0.98 1.07,0.45 2.02,0.85 2.3,0.72 1.36,-0.65 2.74,-2.2 4.34,-4 C 32.49,35.75 37.57,30.05 48.49,29.34 68.9,28 68.46,29.04 83.02,43.76 l 7.64,9.67 -9.63,9.19 c -4.22,-4.26 -7.75,-9.51 -11.75,-14 -1.57,-1.77 -2.97,-3.34 -4.62,-4.07 -1.01,-0.44 -2.49,-0.44 -4.22,-0.4 l 3.88,20.97 c 0.44,2.32 0.51,4.53 0.13,6.59 -0.33,1.8 -1.01,3.47 -2.08,5 1.96,6.46 4.56,14.38 7.26,22.13 2.71,7.78 5.55,15.45 7.96,21.37 l 1.09,2.67 -16.15,-0.09 -0.54,-1.04 C 59.55,117.04 56.92,110.86 54.45,104.4 51.84,97.58 49.4,90.43 47.54,84.35 c -2.26,0.65 -4.72,1.4 -6.99,2.14 -2.26,0.74 -4.23,1.46 -5.43,2.02 -0.26,0.12 -0.6,0.87 -0.97,1.68 l -0.11,0.24 c -0.35,0.75 -0.5,1.56 -0.55,2.43 -0.06,0.98 0,2.07 0.06,3.25 0,8.78 0.59,17.91 0.87,26.72 L 19.08,122.78 18.1,98.37 C 18.07,97.65 18.05,97.29 18.03,96.95 V 96.92 C 17.97,95.88 17.92,94.88 17.9,93.78 17.89,92.69 17.92,91.61 18.04,90.54 19.44,78.27 25.8,75.3 33.53,71.7 Z M 33.23,1.4 c 3.15,-1.54 6.88,-1.89 10.44,-0.67 3.58,1.22 6.32,3.78 7.86,6.93 1.54,3.15 1.89,6.88 0.67,10.44 -1.22,3.58 -3.78,6.32 -6.93,7.86 -3.15,1.54 -6.88,1.89 -10.44,0.67 C 31.25,25.41 28.51,22.85 26.97,19.7 25.43,16.55 25.08,12.82 26.3,9.26 27.52,5.69 30.08,2.95 33.23,1.4 Z"
     id="path2"
     inkscape:connector-curvature="0" /></g></g>
<g
   id="g12">
</g>
<g
   id="g14">
</g>
<g
   id="g16">
</g>
<g
   id="g18">
</g>
<g
   id="g20">
</g>
<g
   id="g22">
</g>
<g
   id="g24">
</g>
<g
   id="g26">
</g>
<g
   id="g28">
</g>
<g
   id="g30">
</g>
<g
   id="g32">
</g>
<g
   id="g34">
</g>
<g
   id="g36">
</g>
<g
   id="g38">
</g>
<g
   id="g40">
</g>
</svg>